<svg width="28" height="30" viewBox="0 0 28 30" fill="none" xmlns="http://www.w3.org/2000/svg">
<path d="M3.59728 0.786133H19.3317C20.2388 0.786133 21.1089 1.14651 21.7503 1.78798C22.3918 2.42945 22.7522 3.29947 22.7522 4.20665V13.5283C21.1931 13.0231 19.5248 12.9586 17.9313 13.3419C16.3379 13.7251 14.8813 14.5412 13.7225 15.7001C12.5636 16.8589 11.7475 18.3155 11.3643 19.9089C10.981 21.5023 11.0455 23.1707 11.5507 24.7298H2.22907C2.22907 25.0926 2.37322 25.4407 2.62981 25.6972C2.8864 25.9538 3.23441 26.098 3.59728 26.098H12.1239C12.5157 26.8486 13.0123 27.5397 13.5989 28.1503H3.59728C2.6901 28.1503 1.82008 27.7899 1.1786 27.1484C0.537133 26.507 0.176758 25.6369 0.176758 24.7298V4.20665C0.176758 3.29947 0.537133 2.42945 1.1786 1.78798C1.82008 1.14651 2.6901 0.786133 3.59728 0.786133ZM5.64959 4.89076C5.28672 4.89076 4.93871 5.03491 4.68212 5.2915C4.42553 5.54808 4.28138 5.89609 4.28138 6.25896V7.62717C4.28138 7.99004 4.42553 8.33805 4.68212 8.59464C4.93871 8.85123 5.28672 8.99538 5.64959 8.99538H16.5952C16.9581 8.99538 17.3061 8.85123 17.5627 8.59464C17.8193 8.33805 17.9635 7.99004 17.9635 7.62717V6.25896C17.9635 5.89609 17.8193 5.54808 17.5627 5.2915C17.3061 5.03491 16.9581 4.89076 16.5952 4.89076H5.64959Z" fill="url(#paint0_linear_4227_10306)"/>
<path d="M27.5415 21.9944C27.5415 19.9986 26.7487 18.0845 25.3374 16.6733C23.9262 15.2621 22.0121 14.4692 20.0164 14.4692C18.0206 14.4692 16.1065 15.2621 14.6953 16.6733C13.284 18.0845 12.4912 19.9986 12.4912 21.9944C12.4912 23.9902 13.284 25.9042 14.6953 27.3155C16.1065 28.7267 18.0206 29.5195 20.0164 29.5195C22.0121 29.5195 23.9262 28.7267 25.3374 27.3155C26.7487 25.9042 27.5415 23.9902 27.5415 21.9944ZM19.2146 18.7066L23.0538 21.2241C23.1727 21.3004 23.2703 21.4058 23.3373 21.5303C23.4044 21.6547 23.4386 21.7942 23.4369 21.9355C23.437 22.0778 23.4032 22.218 23.3384 22.3446C23.2771 22.4699 23.1836 22.5767 23.0675 22.6539L19.2269 25.274C19.1601 25.3189 19.0873 25.3544 19.0107 25.3793C18.8329 25.4361 18.6403 25.4249 18.4703 25.3479C18.3723 25.302 18.2829 25.2395 18.2062 25.1631C18.1321 25.0825 18.072 24.99 18.0283 24.8895C17.9856 24.7868 17.9638 24.6765 17.964 24.5652V19.4235C17.9633 19.2589 18.0104 19.0976 18.0995 18.9592C18.1886 18.8207 18.316 18.7111 18.4662 18.6436C18.5855 18.5877 18.7173 18.564 18.8486 18.5748C18.9799 18.5856 19.106 18.6306 19.2146 18.7052V18.7066Z" fill="url(#paint1_linear_4227_10306)"/>
<defs>
<linearGradient id="paint0_linear_4227_10306" x1="11.4645" y1="0.786133" x2="11.4645" y2="28.1503" gradientUnits="userSpaceOnUse">
<stop stop-color="#5EBE84"/>
<stop offset="1" stop-color="#1EC794"/>
</linearGradient>
<linearGradient id="paint1_linear_4227_10306" x1="20.0164" y1="14.4692" x2="20.0164" y2="29.5195" gradientUnits="userSpaceOnUse">
<stop stop-color="#FF3131"/>
<stop offset="1" stop-color="#CF0D0D"/>
</linearGradient>
</defs>
</svg>
