<svg width="12" height="12" viewBox="0 0 12 12" fill="none" xmlns="http://www.w3.org/2000/svg">
<path fill-rule="evenodd" clip-rule="evenodd" d="M6.05495 2.17813C3.9057 2.17813 2.16471 3.91823 2.16471 6.06311C2.16471 8.208 3.9057 9.94809 6.05495 9.94809C7.12724 9.94809 8.09699 9.51574 8.80127 8.81469C9.50874 8.11047 9.94519 7.13826 9.94519 6.06311C9.94519 3.91823 8.2042 2.17813 6.05495 2.17813ZM0.823242 6.06311C0.823242 3.1759 3.16629 0.83667 6.05495 0.83667C8.94361 0.83667 11.2867 3.1759 11.2867 6.06311C11.2867 7.26722 10.8784 8.37687 10.1938 9.26032L11.6265 10.6914C11.8886 10.9532 11.8888 11.3779 11.6271 11.6399C11.3653 11.902 10.9406 11.9023 10.6785 11.6405L9.2434 10.207C8.36089 10.8855 7.25466 11.2896 6.05495 11.2896C3.16629 11.2896 0.823242 8.95033 0.823242 6.06311Z" fill="#404040"/>
</svg>
