<svg width="65" height="66" viewBox="0 0 65 66" fill="none" xmlns="http://www.w3.org/2000/svg">
<path d="M62.2057 38.3648C62.1854 38.4776 62.1711 38.5918 62.1498 38.7046L62.0399 38.0578C62.1001 38.1586 62.1498 38.2634 62.2057 38.365C62.5401 36.552 62.7092 34.7124 62.7111 32.8688C62.7111 28.7759 61.9097 24.805 60.3266 21.067C58.7991 17.4562 56.6139 14.2134 53.8278 11.4293C51.0457 8.64516 47.8006 6.45977 44.1918 4.93253C40.4549 3.35136 36.4841 2.54999 32.3913 2.54999C30.4625 2.54999 28.5302 2.73108 26.65 3.09201C26.646 3.09301 26.641 3.09301 26.6357 3.09402C26.7416 3.14995 26.8484 3.19986 26.952 3.2578L26.3144 3.15798C26.4213 3.13791 26.5291 3.11534 26.6357 3.09402C24.0563 1.72254 21.1548 0.990143 18.2182 0.990143C13.424 0.990143 8.91606 2.85699 5.52573 6.24832C2.13641 9.63865 0.268555 14.1464 0.268555 18.9408C0.270182 21.9863 1.0474 24.9813 2.52693 27.6432C2.54625 27.5334 2.55954 27.4225 2.58086 27.3127L2.69072 27.9482C2.63378 27.8487 2.58387 27.7448 2.52693 27.6432C2.22517 29.3688 2.07244 31.1171 2.07044 32.8688C2.07044 36.9627 2.87181 40.9327 4.45499 44.6716C5.98022 48.2834 8.16661 51.524 10.9497 54.3081C13.7358 57.0925 16.9767 59.2809 20.5895 60.8041C24.3267 62.3883 28.2984 63.1906 32.3913 63.1906C34.1728 63.1906 35.9584 63.0279 37.7011 62.7189C37.5995 62.6619 37.496 62.61 37.3921 62.55L38.04 62.6639C37.9281 62.6852 37.8153 62.6985 37.7014 62.7189C40.3948 64.2433 43.4368 65.0448 46.5317 65.0455C51.3251 65.0455 55.8309 63.1814 59.2212 59.7893C62.6123 56.401 64.4784 51.8922 64.4784 47.0978C64.4767 44.0409 63.6945 41.035 62.2057 38.365V38.3648ZM32.5122 51.4377C21.7407 51.4377 16.9217 46.1419 16.9217 42.1732C16.9217 40.1373 18.4246 38.7107 20.4959 38.7107C25.1055 38.7107 23.9116 45.3295 32.5122 45.3295C36.9153 45.3295 39.3465 42.9387 39.3465 40.4922C39.3465 39.0209 38.6206 37.3896 35.7214 36.6747L26.1406 34.2832C18.4246 32.3481 17.0243 28.177 17.0243 24.2559C17.0243 16.1151 24.6894 13.0583 31.8879 13.0583C38.5188 13.0583 46.3356 16.7231 46.3356 21.607C46.3356 23.6999 44.5234 24.9168 42.4529 24.9168C38.5188 24.9168 39.2429 19.4715 31.3185 19.4715C27.3862 19.4715 25.2081 21.2524 25.2081 23.8004C25.2081 26.3437 28.3137 27.1561 31.0103 27.7701L38.1019 29.3443C45.8698 31.0749 47.8395 35.6103 47.8395 39.882C47.8395 46.4978 42.7612 51.4377 32.5122 51.4377ZM37.3921 62.55C37.496 62.6102 37.5995 62.6619 37.7014 62.7189C37.8153 62.6985 37.9281 62.6852 38.04 62.6637L37.3921 62.55ZM62.1498 38.7046C62.1711 38.5918 62.1854 38.4779 62.2057 38.365C62.1498 38.2632 62.0999 38.1586 62.0402 38.0578L62.1498 38.7046ZM2.58086 27.3127C2.55954 27.4225 2.54625 27.5334 2.52693 27.6432C2.58387 27.7448 2.63378 27.8487 2.69072 27.9482L2.58086 27.3127ZM26.952 3.2578C26.8484 3.19986 26.7416 3.14995 26.636 3.09402C26.5291 3.11534 26.4213 3.13766 26.3144 3.15798L26.952 3.2578Z" fill="#00AFF0"/>
</svg>
