<svg width="64" height="65" viewBox="0 0 64 65" fill="none" xmlns="http://www.w3.org/2000/svg">
<path d="M16.8513 55.2919L17.8891 55.8108C22.2136 58.4047 27.0567 59.6152 31.9001 59.6152C47.1217 59.6152 59.5757 47.164 59.5757 31.9458C59.5757 24.6826 56.635 17.5923 51.446 12.4042C46.2568 7.21607 39.3377 4.27631 31.9001 4.27631C16.6785 4.27631 4.22421 16.7276 4.39729 32.1188C4.39729 37.3067 5.95404 42.322 8.54855 46.6451L9.24038 47.6829L6.47304 57.886L16.8513 55.2919Z" fill="#00E676"/>
<path d="M54.3867 9.63727C48.5056 3.58468 40.376 0.298828 32.0732 0.298828C14.4302 0.298828 0.246325 14.6523 0.419159 32.1186C0.419159 37.6526 1.97591 43.0137 4.57066 47.8557L0.0732422 64.2845L16.8516 59.9611C21.5219 62.5553 26.7109 63.7659 31.9004 63.7659C49.3705 63.7659 63.5544 49.4121 63.5544 31.9461C63.5544 23.4721 60.2678 15.517 54.387 9.63727H54.3867ZM32.0732 58.405C27.4029 58.405 22.7327 57.1947 18.7543 54.7735L17.7165 54.2547L7.68417 56.8486L10.2787 46.9915L9.58684 45.9537C1.97591 33.6755 5.60841 17.4193 18.0624 9.81006C30.5164 2.20108 46.603 5.83277 54.2139 18.284C61.8246 30.7353 58.1921 46.8182 45.7383 54.4275C41.7596 57.0214 36.9165 58.4047 32.0732 58.4047V58.405ZM47.2948 39.2095L45.3921 38.3448C45.3921 38.3448 42.6248 37.1342 40.895 36.2695C40.7219 36.2695 40.549 36.0964 40.376 36.0964C39.857 36.0964 39.511 36.2695 39.1651 36.4425C39.1651 36.4425 38.9923 36.6153 36.5706 39.3823C36.3975 39.7281 36.0516 39.9012 35.7057 39.9012H35.5326C35.3598 39.9012 35.0139 39.7281 34.8408 39.5553L33.9759 39.2095C32.0732 38.3448 30.3436 37.307 28.9597 35.9236C28.6138 35.5778 28.0948 35.2319 27.7489 34.8861C26.538 33.6755 25.3272 32.2919 24.4625 30.7355L24.2894 30.3897C24.1166 30.2166 24.1166 30.0438 23.9435 29.698C23.9435 29.3522 23.9435 29.0063 24.1166 28.8333C24.1166 28.8333 24.8084 27.9685 25.3272 27.4499C25.6734 27.1038 25.8462 26.5852 26.1921 26.2393C26.538 25.7205 26.7111 25.0288 26.538 24.5099C26.3652 23.6452 24.2894 18.976 23.7707 17.9384C23.4245 17.4195 23.0788 17.2467 22.5599 17.0737H20.6572C20.311 17.0737 19.9653 17.2467 19.6192 17.2467L19.4461 17.4195C19.1002 17.5926 18.7543 17.9384 18.4083 18.1112C18.0624 18.4573 17.8893 18.8029 17.5434 19.149C16.3326 20.7054 15.6408 22.6076 15.6408 24.5099C15.6408 25.8933 15.9867 27.2769 16.5057 28.4874L16.6788 29.0063C18.2355 32.2919 20.311 35.2319 23.0788 37.8259L23.7707 38.5175C24.2894 39.0364 24.8084 39.3823 25.1544 39.9009C28.7869 43.014 32.9381 45.2621 37.6084 46.4726C38.1274 46.6454 38.8192 46.6454 39.3382 46.8185H41.0678C41.9327 46.8185 42.9705 46.4726 43.6625 46.1268C44.1813 45.7809 44.5272 45.7809 44.8731 45.4351L45.2193 45.089C45.5652 44.7432 45.9111 44.5704 46.257 44.2245C46.603 43.8787 46.9489 43.5329 47.122 43.1868C47.4679 42.4951 47.6407 41.6304 47.8138 40.7659V39.5553C47.8138 39.5553 47.6407 39.3823 47.2948 39.2095Z" fill="white"/>
</svg>
