<svg width="27" height="28" viewBox="0 0 27 28" fill="none" xmlns="http://www.w3.org/2000/svg">
<path d="M19.125 3.09155H7.875C4.7684 3.09155 2.25 5.60995 2.25 8.71655V19.9666C2.25 23.0732 4.7684 25.5916 7.875 25.5916H19.125C22.2316 25.5916 24.75 23.0732 24.75 19.9666V8.71655C24.75 5.60995 22.2316 3.09155 19.125 3.09155Z" stroke="white" stroke-width="2" stroke-linecap="round" stroke-linejoin="round"/>
<path d="M18.0002 13.6312C18.139 14.5675 17.9791 15.5237 17.5431 16.3638C17.1072 17.204 16.4174 17.8853 15.572 18.3108C14.7265 18.7364 13.7684 18.8845 12.8339 18.7341C11.8994 18.5837 11.0361 18.1425 10.3669 17.4733C9.69757 16.804 9.25636 15.9407 9.10598 15.0062C8.95561 14.0717 9.10373 13.1136 9.52928 12.2681C9.95482 11.4227 10.6361 10.7329 11.4763 10.297C12.3164 9.86102 13.2726 9.7011 14.2089 9.83994C15.1639 9.98156 16.0481 10.4266 16.7308 11.1093C17.4135 11.792 17.8585 12.6762 18.0002 13.6312Z" stroke="white" stroke-width="2" stroke-linecap="round" stroke-linejoin="round"/>
<path d="M19.6875 8.15234H19.6987" stroke="white" stroke-width="2" stroke-linecap="round" stroke-linejoin="round"/>
</svg>
