<svg width="27" height="28" viewBox="0 0 27 28" fill="none" xmlns="http://www.w3.org/2000/svg">
<path d="M25.3572 8.06234C25.2235 7.52843 24.9514 7.03924 24.5681 6.64418C24.1849 6.24911 23.7043 5.96218 23.1747 5.81234C21.2397 5.33984 13.4997 5.33984 13.4997 5.33984C13.4997 5.33984 5.75967 5.33984 3.82467 5.85734C3.29507 6.00718 2.81439 6.29411 2.43118 6.68918C2.04797 7.08424 1.7758 7.57343 1.64217 8.10734C1.28803 10.0711 1.11481 12.0632 1.12467 14.0586C1.11204 16.069 1.28528 18.0763 1.64217 20.0548C1.7895 20.5722 2.06776 21.0428 2.45008 21.4211C2.8324 21.7995 3.30584 22.0729 3.82467 22.2148C5.75967 22.7323 13.4997 22.7323 13.4997 22.7323C13.4997 22.7323 21.2397 22.7323 23.1747 22.2148C23.7043 22.065 24.1849 21.7781 24.5681 21.383C24.9514 20.9879 25.2235 20.4988 25.3572 19.9648C25.7086 18.0159 25.8818 16.039 25.8747 14.0586C25.8873 12.0482 25.7141 10.0409 25.3572 8.06234V8.06234Z" stroke="white" stroke-width="2" stroke-linecap="round" stroke-linejoin="round"/>
<path d="M10.9688 17.7374L17.4375 14.0586L10.9688 10.3799V17.7374Z" stroke="white" stroke-width="2" stroke-linecap="round" stroke-linejoin="round"/>
</svg>
