<svg width="172" height="36" viewBox="0 0 172 36" fill="none" xmlns="http://www.w3.org/2000/svg">
<g clip-path="url(#clip0_4227_10404)">
<path d="M29.1196 21.3099C27.2496 21.3099 25.3696 21.3099 23.4896 21.3099C23.3783 21.298 23.266 21.3204 23.1677 21.374C23.0694 21.4276 22.9898 21.5099 22.9396 21.6099C22.3303 22.5896 21.4773 23.3945 20.464 23.946C19.4507 24.4974 18.3116 24.7766 17.1581 24.7563C16.0046 24.736 14.8761 24.4168 13.8828 23.83C12.8896 23.2432 12.0655 22.4087 11.4911 21.4082C10.9167 20.4077 10.6116 19.2753 10.6057 18.1216C10.5998 16.968 10.8932 15.8325 11.4573 14.8261C12.0213 13.8198 12.8368 12.9769 13.824 12.3799C14.8112 11.7829 15.9363 11.4521 17.0896 11.4199C18.2821 11.3709 19.465 11.6521 20.5079 12.2326C21.5508 12.8132 22.413 13.6705 22.9996 14.7099C23.0418 14.7983 23.1086 14.8726 23.1919 14.9241C23.2753 14.9755 23.3717 15.0018 23.4696 14.9999C24.7196 14.9999 25.9796 14.9999 27.2296 15.0699C27.6396 15.0699 27.6396 14.9399 27.5196 14.6299C26.8951 12.6623 25.7117 10.9188 24.1137 9.612C22.5157 8.30516 20.572 7.49142 18.5196 7.26995C15.7484 7.06665 13.0041 7.92937 10.8478 9.68178C8.6914 11.4342 7.28569 13.944 6.91796 16.6982C6.55022 19.4524 7.24821 22.2431 8.86929 24.4998C10.4904 26.7566 12.9121 28.3091 15.6396 28.8399C17.268 29.0947 18.9333 28.969 20.5051 28.4729C22.0769 27.9767 23.5125 27.1234 24.6996 25.9799C25.3031 25.3967 26.1127 25.0758 26.9519 25.087C27.7911 25.0982 28.5919 25.4408 29.1796 26.0399C29.4721 26.342 29.7013 26.6995 29.8535 27.0915C30.0057 27.4835 30.0778 27.902 30.0657 28.3224C30.0536 28.7427 29.9574 29.1563 29.7829 29.5389C29.6084 29.9215 29.3591 30.2653 29.0496 30.5499C26.5182 33.0219 23.2565 34.6107 19.7496 35.0799C17.0153 35.5163 14.2156 35.2709 11.5989 34.3656C8.98219 33.4602 6.62948 31.9228 4.74957 29.8899C2.16017 27.2239 0.540364 23.7659 0.14957 20.0699C-0.259149 16.5366 0.433071 12.9633 2.13164 9.83822C3.83022 6.71313 6.45229 4.18873 9.63957 2.60995C12.3392 1.25079 15.3537 0.639613 18.3696 0.839946C22.0828 1.1116 25.6093 2.57392 28.4252 5.00965C31.241 7.44538 33.196 10.7245 33.9996 14.3599C34.3753 15.8012 34.4938 17.2975 34.3496 18.7799C34.2388 19.5157 33.8663 20.1868 33.3005 20.6699C32.7347 21.1531 32.0136 21.4158 31.2696 21.4099H29.1196V21.3099Z" fill="white"/>
<path d="M109.71 18.1997C109.36 19.4298 109 20.6597 108.65 21.8897L107.34 26.5597C107.207 27.0093 106.934 27.4049 106.562 27.6895C106.189 27.974 105.736 28.1328 105.267 28.1428C104.799 28.1528 104.339 28.0136 103.955 27.7452C103.571 27.4768 103.282 27.0932 103.13 26.6497C101.65 22.2231 100.173 17.7898 98.6996 13.3497C98.6037 13.0619 98.5465 12.7626 98.5296 12.4597C98.4645 12.0413 98.5465 11.6133 98.7617 11.2486C98.9769 10.8839 99.3118 10.6051 99.7096 10.4597C100.189 10.2961 100.71 10.3066 101.182 10.4896C101.654 10.6725 102.046 11.016 102.29 11.4597C102.671 12.2547 102.972 13.0854 103.19 13.9397C103.86 15.9998 104.51 18.0598 105.19 20.1198L105.29 20.2898C105.53 19.5198 105.75 18.8097 105.96 18.0997C106.553 16.0997 107.146 14.0797 107.74 12.0397C107.865 11.5583 108.15 11.1334 108.547 10.8339C108.945 10.5343 109.432 10.3777 109.929 10.3892C110.427 10.4008 110.906 10.5799 111.289 10.8976C111.672 11.2153 111.936 11.653 112.04 12.1397C112.706 14.7597 113.373 17.3731 114.04 19.9797C114.04 20.0897 114.1 20.1997 114.17 20.3997C114.43 19.5897 114.67 18.8697 114.9 18.1497C115.54 16.1497 116.17 14.1497 116.82 12.1497C116.934 11.6279 117.232 11.1647 117.66 10.8451C118.088 10.5255 118.617 10.371 119.15 10.4097C119.435 10.4225 119.713 10.5015 119.963 10.6404C120.212 10.7792 120.426 10.9743 120.587 11.21C120.748 11.4458 120.852 11.7157 120.89 11.9986C120.929 12.2814 120.901 12.5694 120.81 12.8397C120.55 13.8397 120.17 14.8997 119.81 15.9297C118.62 19.4997 117.44 23.0697 116.24 26.6397C116.13 27.0015 115.929 27.3289 115.656 27.59C115.382 27.851 115.046 28.0369 114.68 28.1295C114.313 28.2221 113.929 28.2183 113.565 28.1185C113.2 28.0186 112.868 27.8262 112.6 27.5597C112.348 27.3163 112.168 27.0085 112.08 26.6698C111.36 24.0031 110.636 21.3364 109.91 18.6697C109.91 18.5297 109.83 18.3997 109.79 18.2597L109.71 18.1997Z" fill="white"/>
<path d="M72.0888 11.9799V5.52988C72.072 5.17192 72.1433 4.81531 72.2965 4.49134C72.4496 4.16736 72.68 3.88591 72.9672 3.67169C73.2545 3.45747 73.59 3.31702 73.9442 3.26265C74.2984 3.20829 74.6605 3.24167 74.9988 3.35988C75.4389 3.49147 75.822 3.76704 76.0868 4.1424C76.3515 4.51776 76.4825 4.97116 76.4588 5.42988V19.4299C76.4003 21.5005 75.6293 23.4876 74.2759 25.0559C72.9225 26.6241 71.0695 27.6774 69.0297 28.0382C66.9898 28.3989 64.888 28.0449 63.0788 27.036C61.2697 26.027 59.8639 24.4249 59.0988 22.4999C58.4069 20.6231 58.3244 18.5759 58.863 16.6496C59.4016 14.7232 60.5339 13.0157 62.0988 11.7699C63.4895 10.7651 65.1573 10.216 66.8729 10.1981C68.5885 10.1802 70.2675 10.6944 71.6788 11.6699L72.0888 11.9799ZM62.7988 19.2299C62.7919 19.5655 62.8221 19.9009 62.8888 20.2299C63.009 21.1257 63.3911 21.9661 63.987 22.6457C64.583 23.3252 65.3663 23.8137 66.2388 24.0499C67.0808 24.3238 67.986 24.3367 68.8355 24.0868C69.6851 23.837 70.4391 23.3361 70.9988 22.6499C71.4704 22.081 71.8173 21.4194 72.0171 20.708C72.217 19.9966 72.2652 19.2511 72.1588 18.5199C72.1045 17.8488 71.9061 17.1973 71.5771 16.6099C71.248 16.0225 70.7961 15.513 70.2522 15.1162C69.7082 14.7194 69.0851 14.4446 68.4252 14.3106C67.7654 14.1767 67.0844 14.1866 66.4288 14.3399C65.358 14.621 64.415 15.2586 63.7551 16.1475C63.0953 17.0364 62.758 18.1236 62.7988 19.2299Z" fill="white"/>
<path d="M50.2389 20.9599C48.5189 20.9599 46.7989 20.9599 45.0789 20.9599C44.7389 20.9599 44.6589 21.0099 44.7989 21.3599C45.1823 22.2388 45.8104 22.989 46.6082 23.5209C47.4061 24.0528 48.3401 24.344 49.2989 24.3599C50.5644 24.4021 51.8085 24.026 52.8389 23.2899C53.2533 22.9788 53.7665 22.8285 54.2833 22.8672C54.8001 22.9058 55.2853 23.1306 55.6489 23.4999C55.8529 23.6759 56.0141 23.8961 56.1202 24.1437C56.2262 24.3914 56.2743 24.6601 56.2608 24.9291C56.2473 25.1982 56.1726 25.4607 56.0422 25.6965C55.9119 25.9323 55.7295 26.1353 55.5089 26.2899C54.2703 27.2551 52.8025 27.8822 51.2489 28.1099C49.7853 28.4105 48.2708 28.3529 46.8343 27.942C45.3979 27.5311 44.082 26.779 42.9989 25.7499C41.4239 24.2635 40.4881 22.2233 40.3889 20.0599C40.1706 17.9294 40.6856 15.7882 41.8489 13.9899C42.5638 12.8793 43.5362 11.9576 44.6835 11.303C45.8307 10.6484 47.119 10.2803 48.4389 10.2299C50.2341 10.0346 52.0437 10.4352 53.5889 11.3699C54.5875 12.0154 55.4297 12.8754 56.0542 13.8874C56.6787 14.8994 57.0697 16.0378 57.1989 17.2199C57.3279 17.8546 57.3683 18.5041 57.3189 19.1499C57.2879 19.653 57.0613 20.1241 56.6876 20.4623C56.3138 20.8006 55.8226 20.9792 55.3189 20.9599H50.2389ZM48.9289 17.2399H52.6489C53.1689 17.2399 53.1689 17.2399 52.9889 16.7299C52.7466 15.9684 52.2679 15.3038 51.6224 14.8327C50.9769 14.3616 50.198 14.1084 49.3989 14.1099C48.4513 14.013 47.4979 14.2269 46.6825 14.7194C45.8672 15.2118 45.2341 15.9561 44.8789 16.8399C44.6989 17.2699 44.7089 17.2899 45.1689 17.2899L48.9289 17.2399Z" fill="white"/>
<path d="M161.539 16.1298L162.929 14.9098L167.739 10.6098C167.942 10.4255 168.179 10.2847 168.438 10.196C168.697 10.1073 168.971 10.0726 169.244 10.0942C169.517 10.1157 169.782 10.193 170.024 10.3213C170.266 10.4496 170.479 10.626 170.649 10.8398C170.829 11.0429 170.966 11.2806 171.051 11.5382C171.136 11.7959 171.168 12.0682 171.145 12.3385C171.122 12.6089 171.043 12.8717 170.915 13.1108C170.787 13.35 170.612 13.5606 170.399 13.7298C168.789 15.1398 167.209 16.5698 165.599 17.9798C165.359 18.1898 165.449 18.3198 165.599 18.4998C167.319 20.5998 169.029 22.7098 170.759 24.8098C171.006 25.0808 171.178 25.4116 171.257 25.7695C171.336 26.1273 171.32 26.4996 171.211 26.8494C171.102 27.1993 170.903 27.5145 170.634 27.7636C170.366 28.0128 170.036 28.1873 169.679 28.2698C169.313 28.3934 168.917 28.4001 168.546 28.2891C168.175 28.178 167.848 27.9547 167.609 27.6498C165.903 25.5498 164.196 23.4398 162.489 21.3198C162.289 21.0598 162.179 21.0498 161.929 21.2598C161.78 21.3793 161.661 21.5319 161.581 21.7055C161.501 21.8791 161.463 22.0689 161.469 22.2598C161.54 23.5922 161.54 24.9274 161.469 26.2598C161.452 26.5273 161.381 26.7885 161.26 27.0279C161.14 27.2674 160.973 27.4802 160.768 27.6537C160.564 27.8272 160.327 27.9579 160.071 28.0379C159.815 28.118 159.546 28.1459 159.279 28.1198C159.009 28.1201 158.741 28.0655 158.493 27.9595C158.244 27.8534 158.019 27.6979 157.832 27.5026C157.645 27.3072 157.5 27.076 157.405 26.8229C157.31 26.5697 157.267 26.3 157.279 26.0298V5.34983C157.26 4.82594 157.448 4.31548 157.801 3.92834C158.155 3.5412 158.646 3.30832 159.169 3.27983C159.449 3.22976 159.736 3.23986 160.012 3.30948C160.287 3.37909 160.545 3.50662 160.767 3.68355C160.989 3.86049 161.172 4.08278 161.301 4.33561C161.431 4.58845 161.505 4.86602 161.519 5.14983C161.555 5.81603 161.555 6.48363 161.519 7.14983C161.519 10.1498 161.519 13.0698 161.519 16.0298C161.469 16.0398 161.499 16.0598 161.539 16.1298Z" fill="white"/>
<path d="M130.28 28.2601C129.086 28.3081 127.894 28.108 126.78 27.6727C125.667 27.2374 124.655 26.5761 123.81 25.7306C122.964 24.8852 122.303 23.8738 121.868 22.7602C121.433 21.6466 121.232 20.4549 121.28 19.2601C121.314 16.8732 122.294 14.5972 124.005 12.9328C125.716 11.2684 128.018 10.352 130.405 10.3851C132.792 10.4183 135.068 11.3983 136.733 13.1096C138.397 14.8208 139.314 17.1232 139.28 19.5101C139.291 20.6833 139.063 21.8464 138.611 22.9291C138.159 24.0119 137.493 24.9917 136.651 25.8096C135.81 26.6274 134.812 27.2662 133.717 27.6874C132.622 28.1086 131.453 28.3034 130.28 28.2601ZM134.99 19.2601C135.001 18.6657 134.91 18.0738 134.72 17.5101C134.446 16.6595 133.933 15.9054 133.243 15.3376C132.553 14.7697 131.714 14.4119 130.826 14.3066C129.938 14.2013 129.039 14.3529 128.235 14.7435C127.431 15.1342 126.756 15.7473 126.29 16.5101C125.64 17.6305 125.407 18.9443 125.63 20.2201C125.725 20.9594 125.994 21.6655 126.416 22.28C126.838 22.8944 127.4 23.3995 128.056 23.7533C128.712 24.1072 129.442 24.2997 130.188 24.3147C130.933 24.3298 131.671 24.1671 132.34 23.8401C133.187 23.4205 133.892 22.7601 134.365 21.9418C134.838 21.1235 135.059 20.1836 135 19.2401L134.99 19.2601Z" fill="white"/>
<path d="M97.0993 19.24C97.0993 21.43 97.0993 23.63 97.0993 25.82C97.1268 26.1684 97.0698 26.5183 96.933 26.84C96.7962 27.1616 96.5838 27.4454 96.3138 27.6673C96.0438 27.8892 95.7242 28.0426 95.3821 28.1145C95.0401 28.1863 94.6858 28.1745 94.3493 28.08C94.0849 28.0312 93.834 27.9266 93.6133 27.7731C93.3925 27.6197 93.2071 27.4209 93.0693 27.19C92.8993 26.91 92.7893 26.94 92.5493 27.09C91.0432 27.9944 89.2924 28.4064 87.5411 28.2683C85.7897 28.1303 84.1251 27.4492 82.7793 26.32C81.9874 25.574 81.3597 24.6712 80.9362 23.6692C80.5126 22.6671 80.3025 21.5878 80.3193 20.5C80.3193 17.83 80.3193 15.16 80.3193 12.5C80.3568 11.9461 80.6033 11.427 81.0089 11.0479C81.4146 10.6688 81.9491 10.4579 82.5043 10.4579C83.0595 10.4579 83.594 10.6688 83.9996 11.0479C84.4053 11.427 84.6518 11.9461 84.6893 12.5C84.6893 14.94 84.6893 17.38 84.6893 19.82C84.6858 20.3102 84.7327 20.7994 84.8293 21.28C84.9224 21.901 85.1912 22.4824 85.6041 22.9555C86.017 23.4286 86.5566 23.7737 87.1593 23.95C87.9452 24.2601 88.803 24.341 89.633 24.1835C90.4631 24.026 91.2316 23.6364 91.8493 23.06C92.1361 22.7926 92.3622 22.4668 92.5123 22.1045C92.6624 21.7422 92.733 21.3519 92.7193 20.96V12.59C92.6959 12.213 92.7705 11.8364 92.9357 11.4967C93.1009 11.1571 93.3512 10.8659 93.6622 10.6515C93.9732 10.4372 94.3343 10.3069 94.7105 10.2733C95.0868 10.2398 95.4653 10.3041 95.8093 10.46C96.2338 10.637 96.5908 10.9448 96.8282 11.3387C97.0656 11.7326 97.1711 12.192 97.1293 12.65L97.0993 19.24Z" fill="white"/>
<path d="M142.529 19.2501V12.4901C142.487 12.1083 142.56 11.7227 142.738 11.3824C142.916 11.0422 143.192 10.7628 143.529 10.5801C143.916 10.3794 144.35 10.2847 144.785 10.3058C145.221 10.3269 145.643 10.4629 146.009 10.7001C146.263 10.844 146.46 11.0696 146.569 11.3401C146.669 11.6301 146.789 11.5901 146.999 11.4401C147.866 10.8449 148.847 10.437 149.88 10.2424C150.913 10.0479 151.976 10.0709 152.999 10.3101C153.785 10.4196 154.5 10.8235 154.999 11.4401C155.223 11.72 155.356 12.0619 155.379 12.4196C155.402 12.7773 155.315 13.1335 155.129 13.4401C155.007 13.7472 154.792 14.0086 154.514 14.1878C154.236 14.367 153.91 14.4552 153.579 14.4401C152.879 14.4401 152.179 14.2601 151.469 14.2201C150.197 14.05 148.908 14.3759 147.869 15.1301C147.554 15.3584 147.299 15.6595 147.124 16.0076C146.95 16.3558 146.863 16.7408 146.869 17.1301V25.7501C146.877 26.0555 146.851 26.3608 146.789 26.6601C146.722 27.0091 146.555 27.3312 146.309 27.5869C146.062 27.8426 145.746 28.0209 145.399 28.1001C144.921 28.2301 144.417 28.2301 143.939 28.1001C143.509 27.9825 143.134 27.7182 142.878 27.3529C142.622 26.9877 142.503 26.5444 142.539 26.1001C142.519 23.7801 142.529 21.5101 142.529 19.2501Z" fill="white"/>
</g>
<defs>
<clipPath id="clip0_4227_10404">
<rect width="171.3" height="34.44" fill="white" transform="translate(0 0.839844)"/>
</clipPath>
</defs>
</svg>
