<svg width="68" height="56" viewBox="0 0 68 56" fill="none" xmlns="http://www.w3.org/2000/svg">
<path d="M38.4648 28.2212L44.9379 35.6199L53.6429 41.1818L55.1571 28.2679L53.6429 15.6453L44.7712 20.5313L38.4648 28.2212Z" fill="#00832D"/>
<path d="M0.902344 39.9798V50.9843C0.902344 53.4969 2.94203 55.537 5.45533 55.537H16.4604L18.7392 47.2223L16.4604 39.9798L8.91014 37.701L0.902603 39.9798H0.902344Z" fill="#0066DA"/>
<path d="M16.4604 0.905151L0.902344 16.4624L8.91066 18.7357L16.4604 16.4624L18.6977 9.31843L16.4604 0.905151Z" fill="#E94235"/>
<path d="M0.902344 39.9852H16.4604V16.462H0.902603L0.902344 39.9852Z" fill="#2684FC"/>
<path d="M63.5814 7.49247L53.6426 15.6456V41.1819L63.6224 49.3667C65.1163 50.5369 67.3018 49.4704 67.3018 47.5714V9.25142C67.3018 7.33141 65.0642 6.27012 63.5811 7.49273" fill="#00AC47"/>
<path d="M38.4644 28.2216V39.9803H16.46V55.5375H49.0898C51.6031 55.5375 53.6425 53.4974 53.6425 50.9848V41.1821L38.4644 28.2216Z" fill="#00AC47"/>
<path d="M49.0898 0.905182H16.46V16.4624H38.4644V28.2212L53.6428 15.6449V5.45819C53.6428 2.94502 51.6031 0.905441 49.0898 0.905441" fill="#FFBA00"/>
</svg>
