<svg width="65" height="65" viewBox="0 0 65 65" fill="none" xmlns="http://www.w3.org/2000/svg">
<path fill-rule="evenodd" clip-rule="evenodd" d="M14.1395 40.6078C14.1402 41.4915 13.9666 42.3666 13.6287 43.1832C13.2907 43.9997 12.7951 44.7416 12.1701 45.3663C11.5451 45.991 10.803 46.4864 9.98638 46.824C9.16972 47.1616 8.2945 47.3348 7.41081 47.3338C6.52756 47.3341 5.65292 47.1604 4.83687 46.8224C4.02083 46.4845 3.2794 45.9891 2.65498 45.3644C2.03056 44.7397 1.53539 43.9981 1.1978 43.1819C0.860203 42.3657 0.686799 41.491 0.687502 40.6078C0.686798 39.7243 0.860291 38.8494 1.19805 38.033C1.53582 37.2167 2.03122 36.4749 2.65593 35.8502C3.28063 35.2255 4.02238 34.7301 4.83873 34.3924C5.65508 34.0546 6.53001 33.8811 7.41348 33.8818H14.1421V40.6078H14.1395ZM17.5024 40.6078C17.5017 39.7243 17.6752 38.8494 18.013 38.033C18.3508 37.2167 18.8462 36.4749 19.4709 35.8502C20.0956 35.2255 20.8373 34.7301 21.6537 34.3924C22.47 34.0546 23.345 33.8811 24.2284 33.8818C25.1119 33.8811 25.9868 34.0546 26.8032 34.3924C27.6195 34.7301 28.3613 35.2255 28.986 35.8502C29.6107 36.4749 30.1061 37.2167 30.4439 38.033C30.7816 38.8494 30.9551 39.7243 30.9544 40.6078V57.4254C30.9551 58.3089 30.7816 59.1838 30.4439 60.0002C30.1061 60.8165 29.6107 61.5583 28.986 62.183C28.3613 62.8077 27.6195 63.3031 26.8032 63.6408C25.9868 63.9786 25.1119 64.1521 24.2284 64.1514C23.345 64.1521 22.47 63.9786 21.6537 63.6408C20.8373 63.3031 20.0956 62.8077 19.4709 62.183C18.8462 61.5583 18.3508 60.8165 18.013 60.0002C17.6752 59.1838 17.5017 58.3089 17.5024 57.4254V40.6078Z" fill="#E01E5A"/>
<path fill-rule="evenodd" clip-rule="evenodd" d="M24.2282 13.5991C23.3445 13.5998 22.4694 13.4263 21.6528 13.0883C20.8363 12.7504 20.0945 12.2548 19.4697 11.6298C18.845 11.0048 18.3496 10.2627 18.012 9.44605C17.6744 8.62939 17.5012 7.75417 17.5022 6.87048C17.5015 5.98701 17.675 5.11208 18.0128 4.29573C18.3506 3.47938 18.846 2.73763 19.4707 2.11293C20.0954 1.48822 20.8371 0.992817 21.6535 0.655054C22.4698 0.317291 23.3448 0.143799 24.2282 0.144503C25.1117 0.143799 25.9866 0.317291 26.803 0.655054C27.6193 0.992817 28.3611 1.48822 28.9858 2.11293C29.6105 2.73763 30.1059 3.47938 30.4436 4.29573C30.7814 5.11208 30.9549 5.98701 30.9542 6.87048V13.6018H24.2309L24.2282 13.5991ZM24.2282 17.013C25.1117 17.0123 25.9866 17.1857 26.803 17.5235C27.6193 17.8613 28.3611 18.3567 28.9858 18.9814C29.6105 19.6061 30.1059 20.3478 30.4436 21.1642C30.7814 21.9805 30.9549 22.8555 30.9542 23.7389C30.9549 24.6224 30.7814 25.4973 30.4436 26.3137C30.1059 27.13 29.6105 27.8718 28.9858 28.4965C28.3611 29.1212 27.6193 29.6166 26.803 29.9544C25.9866 30.2921 25.1117 30.4656 24.2282 30.4649H7.35977C6.47653 30.4656 5.60181 30.2922 4.78563 29.9546C3.96946 29.617 3.22783 29.1219 2.60316 28.4974C1.97849 27.873 1.48303 27.1316 1.14511 26.3155C0.807191 25.4995 0.633439 24.6248 0.633791 23.7416C0.633088 22.8581 0.80658 21.9832 1.14434 21.1669C1.48211 20.3505 1.97751 19.6088 2.60221 18.9841C3.22692 18.3593 3.96867 17.8639 4.78502 17.5262C5.60137 17.1884 6.4763 17.0149 7.35977 17.0156H24.2309L24.2282 17.013Z" fill="#36C5F0"/>
<path fill-rule="evenodd" clip-rule="evenodd" d="M51.1858 23.7389C51.1851 22.8552 51.3587 21.9801 51.6966 21.1635C52.0345 20.347 52.5302 19.6051 53.1552 18.9804C53.7801 18.3557 54.5222 17.8603 55.3389 17.5227C56.1555 17.1851 57.0308 17.0119 57.9144 17.0129C58.7979 17.0122 59.6728 17.1857 60.4892 17.5235C61.3056 17.8612 62.0473 18.3566 62.672 18.9814C63.2967 19.6061 63.7921 20.3478 64.1299 21.1642C64.4676 21.9805 64.6411 22.8554 64.6404 23.7389C64.6411 24.6224 64.4676 25.4973 64.1299 26.3137C63.7921 27.13 63.2967 27.8718 62.672 28.4965C62.0473 29.1212 61.3056 29.6166 60.4892 29.9543C59.6728 30.2921 58.7979 30.4656 57.9144 30.4649H51.1858V23.7416V23.7389ZM47.8228 23.7389C47.8235 24.6224 47.65 25.4973 47.3122 26.3137C46.9745 27.13 46.4791 27.8718 45.8544 28.4965C45.2297 29.1212 44.4879 29.6166 43.6716 29.9543C42.8552 30.2921 41.9803 30.4656 41.0968 30.4649C40.2131 30.4659 39.3379 30.2927 38.5212 29.9551C37.7046 29.6175 36.9625 29.1222 36.3375 28.4974C35.7125 27.8727 35.2169 27.1308 34.879 26.3143C34.541 25.4978 34.3675 24.6226 34.3682 23.7389V6.87045C34.3675 5.98676 34.541 5.11161 34.879 4.29508C35.2169 3.47856 35.7125 2.73669 36.3375 2.11195C36.9625 1.48721 37.7046 0.991862 38.5212 0.654257C39.3379 0.316652 40.2131 0.143419 41.0968 0.144475C41.9803 0.143771 42.8552 0.317264 43.6716 0.655026C44.4879 0.992789 45.2297 1.48819 45.8544 2.1129C46.4791 2.7376 46.9745 3.47935 47.3122 4.2957C47.65 5.11205 47.8235 5.98699 47.8228 6.87045V23.7416V23.7389Z" fill="#2EB67D"/>
<path fill-rule="evenodd" clip-rule="evenodd" d="M41.0961 50.6968C41.9796 50.6961 42.8545 50.8695 43.6709 51.2073C44.4872 51.5451 45.2289 52.0405 45.8537 52.6652C46.4784 53.2899 46.9738 54.0316 47.3115 54.848C47.6493 55.6643 47.8228 56.5393 47.8221 57.4227C47.8231 58.3064 47.6499 59.1817 47.3123 59.9983C46.9747 60.815 46.4793 61.557 45.8546 62.182C45.2299 62.807 44.488 63.3027 43.6715 63.6406C42.8549 63.9785 41.9798 64.1521 41.0961 64.1514C40.2124 64.1521 39.3373 63.9785 38.5207 63.6406C37.7042 63.3027 36.9623 62.807 36.3376 62.182C35.7129 61.557 35.2175 60.815 34.8799 59.9983C34.5423 59.1817 34.3691 58.3064 34.3701 57.4227V50.6968H41.0961ZM41.0961 47.3338C40.2126 47.3345 39.3377 47.161 38.5213 46.8232C37.705 46.4855 36.9633 45.99 36.3385 45.3653C35.7138 44.7406 35.2184 43.9989 34.8807 43.1825C34.5429 42.3662 34.3694 41.4913 34.3701 40.6078C34.3694 39.7243 34.5429 38.8494 34.8807 38.033C35.2184 37.2167 35.7138 36.4749 36.3385 35.8502C36.9633 35.2255 37.705 34.7301 38.5213 34.3924C39.3377 34.0546 40.2126 33.8811 41.0961 33.8818H57.9646C58.848 33.8811 59.723 34.0546 60.5393 34.3924C61.3557 34.7301 62.0974 35.2255 62.7221 35.8502C63.3468 36.4749 63.8422 37.2167 64.18 38.033C64.5177 38.8494 64.6912 39.7243 64.6905 40.6078C64.6912 41.4913 64.5177 42.3662 64.18 43.1825C63.8422 43.9989 63.3468 44.7406 62.7221 45.3653C62.0974 45.99 61.3557 46.4855 60.5393 46.8232C59.723 47.161 58.848 47.3345 57.9646 47.3338H41.0961Z" fill="#ECB22E"/>
</svg>
