<svg width="66" height="66" viewBox="0 0 66 66" fill="none" xmlns="http://www.w3.org/2000/svg">
<path d="M32.9672 0.835815C15.236 0.835815 0.862305 15.2095 0.862305 32.9407C0.862305 50.6719 15.236 65.0456 32.9672 65.0456C50.6984 65.0456 65.0721 50.6719 65.0721 32.9407C65.0721 15.2095 50.6984 0.835815 32.9672 0.835815Z" fill="#40B3E0"/>
<path d="M48.5885 19.3037L42.854 48.2154C42.854 48.2154 42.0522 50.2204 39.8467 49.258L26.614 39.1129L21.8022 36.7873L13.7023 34.0604C13.7023 34.0604 12.4592 33.6194 12.3388 32.657C12.2184 31.6947 13.7424 31.1734 13.7424 31.1734L45.9416 18.5422C45.9416 18.5422 48.5883 17.3794 48.5883 19.3042" fill="white"/>
<path d="M25.5976 47.8904C25.5976 47.8904 25.2114 47.8543 24.7298 46.3303C24.249 44.8066 21.8027 36.7869 21.8027 36.7869L41.2508 24.4365C41.2508 24.4365 42.3737 23.7548 42.3336 24.4365C42.3336 24.4365 42.534 24.5569 41.9323 25.1183C41.331 25.6798 26.6548 38.8722 26.6548 38.8722" fill="#D2E5F1"/>
<path d="M31.6883 43.0024L26.4545 47.7745C26.4545 47.7745 26.0451 48.085 25.5977 47.8904L26.5999 39.0264" fill="#B5CFE4"/>
</svg>
