<svg width="27" height="28" viewBox="0 0 27 28" fill="none" xmlns="http://www.w3.org/2000/svg">
<path d="M25.875 4.2159C24.7977 4.97581 23.6049 5.55703 22.3425 5.93715C21.665 5.1581 20.7645 4.60593 19.7629 4.35532C18.7613 4.10471 17.7069 4.16775 16.7423 4.53591C15.7777 4.90408 14.9495 5.5596 14.3696 6.41383C13.7897 7.26806 13.4862 8.27978 13.5 9.31215V10.4372C11.523 10.4884 9.56393 10.0499 7.79738 9.16078C6.03084 8.27162 4.51161 6.95937 3.375 5.3409C3.375 5.3409 -1.125 15.4659 9 19.9659C6.68309 21.5386 3.92305 22.3272 1.125 22.2159C11.25 27.8409 23.625 22.2159 23.625 9.2784C23.624 8.96504 23.5938 8.65245 23.535 8.34465C24.6832 7.21233 25.4934 5.7827 25.875 4.2159V4.2159Z" stroke="white" stroke-width="2" stroke-linecap="round" stroke-linejoin="round"/>
</svg>
