<svg width="65" height="65" viewBox="0 0 65 65" fill="none" xmlns="http://www.w3.org/2000/svg">
<path d="M0 22.0848C0 16.4083 2.25498 10.9643 6.26887 6.95036C10.2828 2.93647 15.7268 0.681488 21.4033 0.681488L42.8065 0.681488C48.4831 0.681488 53.9271 2.93647 57.941 6.95036C61.9548 10.9643 64.2098 16.4083 64.2098 22.0848V43.488C64.2098 49.1645 61.9548 54.6085 57.941 58.6224C53.9271 62.6363 48.4831 64.8913 42.8065 64.8913H21.4033C15.7268 64.8913 10.2828 62.6363 6.26887 58.6224C2.25498 54.6085 0 49.1645 0 43.488V22.0848Z" fill="#3984FD"/>
<path d="M13.377 24.7602C13.377 24.0506 13.6588 23.3701 14.1606 22.8684C14.6623 22.3667 15.3428 22.0848 16.0524 22.0848H32.1048C34.2335 22.0848 36.275 22.9304 37.7802 24.4356C39.2854 25.9408 40.131 27.9823 40.131 30.111V40.8126C40.131 41.5222 39.8492 42.2027 39.3474 42.7044C38.8457 43.2062 38.1652 43.4881 37.4556 43.4881H21.4032C19.2745 43.4881 17.233 42.6424 15.7278 41.1372C14.2226 39.632 13.377 37.5905 13.377 35.4618V24.7602Z" fill="white"/>
<path d="M41.4688 32.1226C41.4682 30.8255 41.9388 29.5725 42.7931 28.5964L47.3145 23.4275C48.5372 22.0363 50.8327 22.8978 50.8327 24.7492V40.823C50.8327 42.6771 48.5372 43.5386 47.3172 42.1447L42.7931 36.9758C41.9395 36.0005 41.4689 34.7484 41.4688 33.4523V32.1199V32.1226Z" fill="white"/>
</svg>
