<?xml version="1.0" encoding="utf-8"?>
<!-- Generator: Adobe Illustrator 23.0.1, SVG Export Plug-In . SVG Version: 6.00 Build 0)  -->
<svg version="1.1" id="Layer_1" xmlns="http://www.w3.org/2000/svg" xmlns:xlink="http://www.w3.org/1999/xlink" x="0px" y="0px"
	 viewBox="0 0 120 60" style="enable-background:new 0 0 120 60;" xml:space="preserve">
<style type="text/css">
	.st0{fill:#4A8CFF;}
	.st1{fill:#FFFFFF;}
	.st2{clip-path:url(#SVGID_2_);}
	.st3{fill:#E5E5E4;}
	.st4{clip-path:url(#SVGID_4_);}
	.st5{clip-path:url(#SVGID_6_);}
	.st6{clip-path:url(#SVGID_8_);}
</style>
<path class="st0" d="M187.7-64.8h-0.1c-52.4,0-94.8,42.5-94.8,94.8c0,52.4,42.4,94.9,94.8,94.9s94.9-42.4,94.9-94.8
	S240.1-64.8,187.7-64.8z M227.8,70.3c-22.3,22.2-58.3,22.1-80.5-0.1c-22.1-22.2-22.1-58.2,0-80.4c22.2-22.3,58.2-22.3,80.5-0.1
	c0,0,0.1,0.1,0.1,0.1C250.2,12,250.1,48.1,227.8,70.3z"/>
<path class="st0" d="M73.8,87.5L64.3,87h-85.4L92.8-26.9l-0.5-9.5c-0.4-15.3-12.7-27.6-28-28l-9.5-0.5H-87.5l0.5,9.5
	c0.7,15.1,12.8,27.3,28,28l9.5,0.5h85.4L-78,87l0.5,9.5c0.5,15.2,12.8,27.5,28,28l9.5,0.5h142.3l-0.5-9.5
	C100.5,99.8,89.4,88.4,73.8,87.5z"/>
<path class="st1" d="M227.8-10.4c-22.3-22.2-58.3-22.1-80.5,0.1c-22.1,22.2-22.1,58.2,0,80.4c22.2,22.3,58.2,22.3,80.5,0.1
	c22.3-22.2,22.3-58.2,0.1-80.5C227.9-10.3,227.9-10.3,227.8-10.4z"/>
<path class="st0" d="M681.1-64.8c-21.8,0-42.5,9.4-56.9,25.7c-25.2-28.6-67.8-34.1-99.4-12.7c-7.3-8.3-23.9-13-33.4-13V125l9.5-0.5
	c15.8-1,27.4-12.2,28-28l0.5-9.5V20.6l0.5-9.5c0-6.6,1.7-13.1,4.7-19C545-26,568.2-32.2,586.4-21.7c5.7,3.3,10.5,8.1,13.8,13.8h-0.1
	c3.1,5.9,4.7,12.4,4.7,19l0.5,9.5V87l0.5,9.5c0.6,15.2,12.7,27.4,27.9,28l9.5,0.5V20.6l0.5-9.5c0-6.7,1.6-13.2,4.7-19.1
	c10.5-18.1,33.8-24.3,51.9-13.7c5.7,3.3,10.5,8.1,13.8,13.8c3,5.9,4.6,12.4,4.6,19l0.5,9.5V87l0.5,9.5c0.5,15.2,12.7,27.4,27.9,28
	l9.5,0.5V11.1C757-30.8,723-64.8,681.1-64.8z"/>
<path class="st0" d="M454-37c-17.8-17.8-41.9-27.8-67.1-27.8c-25.2,0-49.3,10-67.1,27.8c-37,37.1-37,97.2,0.1,134.2
	s97.2,37,134.2-0.1C491.2,60.1,491.1,0,454-37L454-37z M427.1,70.3c-22.3,22.2-58.3,22.1-80.5-0.1c-22.1-22.2-22.1-58.2,0-80.4
	c22.2-22.3,58.2-22.3,80.5-0.1c0,0,0.1,0.1,0.1,0.1C449.5,12,449.4,48.1,427.1,70.3z"/>
<path class="st1" d="M427.1-10.4c-22.3-22.2-58.3-22.1-80.5,0.1c-22.1,22.2-22.1,58.2,0,80.4c22.2,22.3,58.2,22.3,80.5,0.1
	c22.3-22.2,22.3-58.2,0.1-80.5C427.2-10.3,427.2-10.3,427.1-10.4z"/>
<g>
	<defs>
		<circle id="SVGID_1_" cx="-395.9" cy="30.1" r="242"/>
	</defs>
	<clipPath id="SVGID_2_">
		<use xlink:href="#SVGID_1_"  style="overflow:visible;"/>
	</clipPath>
	<g class="st2">
		<path class="st3" d="M-649.8-223.8h507.7v507.7h-507.7V-223.8z"/>
	</g>
</g>
<g>
	<defs>
		<circle id="SVGID_3_" cx="-395.9" cy="30.1" r="237.2"/>
	</defs>
	<clipPath id="SVGID_4_">
		<use xlink:href="#SVGID_3_"  style="overflow:visible;"/>
	</clipPath>
	<g class="st4">
		<path class="st1" d="M-645-219h498.2v498.2H-645V-219z"/>
	</g>
</g>
<g>
	<defs>
		<circle id="SVGID_5_" cx="-395.9" cy="30.1" r="218.2"/>
	</defs>
	<clipPath id="SVGID_6_">
		<use xlink:href="#SVGID_5_"  style="overflow:visible;"/>
	</clipPath>
	<g class="st5">
		<path class="st0" d="M-626-200h460.2v460.2H-626V-200z"/>
	</g>
</g>
<g>
	<defs>
		<path id="SVGID_7_" d="M-329.5,1.8l61.7-45.1c5.4-4.4,9.5-3.4,9.5,4.7V98.9c0,9.1-5.1,8.1-9.5,4.7l-61.7-45.1V1.8z M-538.3-38.2
			V64.2c0.1,23.2,19,41.9,42.2,41.8h149.5c4.2,0,7.6-3.4,7.7-7.6V-4.1c-0.1-23.2-19-41.9-42.2-41.8h-149.5
			C-534.8-45.8-538.2-42.5-538.3-38.2z"/>
	</defs>
	<clipPath id="SVGID_8_">
		<use xlink:href="#SVGID_7_"  style="overflow:visible;"/>
	</clipPath>
	<g class="st6">
		<path class="st1" d="M-550.1-57.7h303.7v175.5h-303.7V-57.7z"/>
	</g>
</g>
</svg>
